<?xml version="1.0" encoding="UTF-8"?>
<svg version="1.1" viewBox="0 0 1e3 1e3" xml:space="preserve" xmlns="http://www.w3.org/2000/svg"><path d="m499.88 6.0742c-257.36 0.50852-471.79 199.95-491.35 456.23 0.10648-0.88073-0.00277-0.0265-0.072266 0.49024l0.017578-0.26563c-0.023545 0.17089-0.031486 0.34658-0.054687 0.51758-0.036564 0.29051 0.027999-0.25263-0.017578 0.11523l-0.45508 3.6758v0.625c-0.00115 0.01-0.00276 0.0195-0.00391 0.0293-0.00455-15.435-0.022961-15.395-0.027344 0.27148-0.82493 7.0828-1.3686 14.248-1.5781 21.498-0.00667 0.0931-0.014863 0.18615-0.021484 0.2793h0.00977c-0.031882 1.1488-0.13851 2.2792-0.1543 3.4316l0.36523 0.0156c-0.00364 0.37153-0.024374 0.46017-0.025391 0.85157-0.63603 74.352 15.271 147.92 46.58 215.36l0.07812 0.16992 0.08008 0.16992c102.17 216.52 346.04 328.68 576.84 265.57 4.6296-1.1262 7.9105-2.0974 9.2774-2.459l-0.77344 0.19922c5.1736-1.2954 10.326-2.6744 15.455-4.1367l-0.0332-0.12305c0.25989-0.0509-1.5575 0.55426 1.5039-0.42383l-0.60742 0.18945 5.3867-1.6582 0.96875-0.33398c106.26-36.724 196.88-108.56 256.87-203.65l0.31836-0.50391 0.30664-0.50781c17.168-28.445 10.532-67.357-9.5566-88.578-7.6948-8.1285-18.109-14.38-29.654-18.184 70.943-49.743 114.03-131.24 114.26-218.75 1.0938-90.864-35.3-157.33-44.625-175.98l-0.15429-0.30859-0.15821-0.3086c-83.883-163.04-261.27-253.52-448.87-253.53h-8e-3v60l-0.0508 0.0039zm361.45 660.71-0.25196 0.14843c0.0434-0.0254 0.0836-0.0547 0.12696-0.0801 0.041-0.0242 0.084-0.0441 0.125-0.0684z" fill="#fff"/><g><path d="m606.68 520c-3.5798 15.94-11.764 34.447-24.291 50.678-3.2232 3.3894-11.227 8.4464-11.227 18.701 0 8.8121 5.7648 17.619 16.271 24.736 48.466 33.893 140.32 29.154 140.65 29.154a202 202 0 0 0 102.69-28.135 208.1 208.1 0 0 0 85.096-95.135h-309.2zm-86.68 183.04v228.11a433.83 433.83 0 0 0 95.561-14.223c3.0703-0.72787 5.5787-1.5032 8.4531-2.2637a433.83 433.83 0 0 0 13.576-3.6348 255.89 255.89 0 0 1-2.5352 0.60157c0.66532-0.20539 1.5536-0.39594 2.1973-0.60157l4.4102-1.3574a434.84 434.84 0 0 0 225.72-178.96 13.557 13.557 0 0 0-17.965-18.979 317.57 317.57 0 0 1-35.926 15.926 345.37 345.37 0 0 1-121.68 21.693c-62.906 0-122.47-17.145-171.82-46.314z" fill="#8e6804"/><path d="m68.18 520a441.28 441.28 0 0 0 39.328 163.94 433.83 433.83 0 0 0 372.49 247.43v-256.29c-48.09-40.246-80.417-94.181-86.867-155.08h-324.95z" fill="#035175"/><path d="m520 66.672v327.2a109.81 109.81 0 0 1 67.434 41.631 108.12 108.12 0 0 1 18.746 40.91 108.12 108.12 0 0 1 0.41406 3.5859h322.28a208.1 208.1 0 0 0 4.9394-44.158c1.0168-75.919-27.116-126.42-38.301-148.79-69.316-134.73-214.92-214.24-375.51-220.38z" fill="#4e7303"/><path d="m480 67.615a433.83 433.83 0 0 0-411.91 401.94c-0.04067 0.32841-0.10386 0.65807-0.14453 0.98633 0 0.0593-0.035156 0.11841-0.035156 0.17773-0.42314 3.0711-0.71904 6.173-0.99219 9.2793h327.49a106.76 106.76 0 0 1 53.053-74.998c7.4917-3.5117 18.599-8.646 32.547-11.471v-325.92z" fill="#7b2a13"/><path d="m444.58 212.15-0.00586 0.00195c-4.0351-0.05292-8.0805-0.05177-12.115 0.00391-21.464 0.29622-42.608 2.1193-60.107 5.4004-109.92 20.78-217.1 80.021-269.05 148.38-11.393 14.953-23.773 40.285-28.594 58.273a433.83 433.83 0 0 0-3.7891 25.959c-0.64265 10.562-0.48919 21.467 0.60938 29.83h322.87a106.76 106.76 0 0 1 53.053-74.994c7.4928-3.5122 18.602-8.6483 32.553-11.473v-179.42c-11.315-1.1496-23.324-1.7983-35.43-1.957zm-260.91 88.879c17.719-0.02208 30.831 19.847 20.064 37.381-6.7445 11.302-19.871 14.402-32.812 7.8398-17.864-9.1142-16.405-34.817 2.5527-43.02 3.4748-1.5095 6.9144-2.1971 10.195-2.2012zm126.68 16.219c13.535 0.42723 26.455 11.776 26.455 26.814 0 20.78-22.421 34.451-39.738 24.061-17.499-10.755-17.499-36.64 0-47.395 4.1925-2.552 8.7718-3.6229 13.283-3.4805z" fill="#f35325"/><path d="m520 220.82v173.05a109.81 109.81 0 0 1 67.434 41.631 108.12 108.12 0 0 1 18.746 40.91 108.12 108.12 0 0 1 0.41406 3.5859h170.31c-7.3426-25.669-16.034-47.98-27.219-70.861-21.874-44.842-45.208-76.559-83.123-112.83-25.52-24.426-36.456-32.628-59.424-44.477-27.964-14.341-56.289-24.346-87.133-31.012h-0.00195z" fill="#81bc06"/><path d="m89.838 520c10.1 12.357 24.051 23.331 41.895 32.598 28.619 14.765 62.889 27.707 82.029 31.17 35.181 6.38 85.856 8.3853 118.48 4.9219 20.33-2.1194 46.979-7.4303 74-14.271-6.6739-17.335-11.111-35.547-13.109-54.418h-303.29zm380.39 146.52c2.2146 15.367 4.3266 31.614 5.8418 47.039 1.6501 16.501 2.9508 36.135 3.9297 57.691v-96.172c-3.3331-2.7894-6.5928-5.6398-9.7715-8.5586z" fill="#05a6f0"/><path d="m606.68 520c-3.5794 15.941-11.763 34.45-24.291 50.682-3.2232 3.3894-11.227 8.4464-11.227 18.701 0 8.8121 5.7648 17.619 16.271 24.736 48.466 33.893 140.32 29.154 140.65 29.154a202 202 0 0 0 75.082-14.961c-5.2737-44.256-10.574-79.041-16.703-108.31h-179.79zm-86.68 183.04v228.11a433.83 433.83 0 0 0 95.561-14.223c3.0703-0.72787 5.5787-1.5032 8.4531-2.2637a433.83 433.83 0 0 0 13.576-3.6348 255.89 255.89 0 0 1-2.5352 0.60157c0.66532-0.20539 1.5536-0.39594 2.1973-0.60157l4.4102-1.3574a434.84 434.84 0 0 0 177.15-117c-1.7834-22.901-3.5703-44.302-5.4199-64.98a345.37 345.37 0 0 1-121.57 21.662c-62.906 0-122.47-17.145-171.82-46.314z" fill="#ffba08"/></g></svg>
